<svg width="1920" height="1080" xmlns="http://www.w3.org/2000/svg">
	<rect id="svg_0" height="725" width="1032" y="852" x="160" stroke-width="1.5" stroke="#000" fill="green"/>
	<rect id="svg_1" height="464" width="200" y="1697" x="177" stroke-width="1.5" stroke="#000" fill="blue"/>
	<rect id="svg_2" height="422" width="694" y="1141" x="359" stroke-width="1.5" stroke="#000" fill="blue"/>
	<rect id="svg_3" height="636" width="115" y="1651" x="251" stroke-width="1.5" stroke="#000" fill="green"/>
	<rect id="svg_4" height="772" width="447" y="1437" x="186" stroke-width="1.5" stroke="#000" fill="green"/>
	<rect id="svg_5" height="246" width="427" y="1456" x="441" stroke-width="1.5" stroke="#000" fill="yellow"/>
	<rect id="svg_6" height="253" width="430" y="1076" x="379" stroke-width="1.5" stroke="#000" fill="blue"/>
	<rect id="svg_7" height="306" width="1681" y="129" x="498" stroke-width="1.5" stroke="#000" fill="yellow"/>
	<rect id="svg_8" height="102" width="788" y="295" x="8" stroke-width="1.5" stroke="#000" fill="green"/>
	<rect id="svg_9" height="23" width="549" y="499" x="404" stroke-width="1.5" stroke="#000" fill="yellow"/>
	<rect id="svg_10" height="95" width="72" y="215" x="665" stroke-width="1.5" stroke="#000" fill="red"/>
	<rect id="svg_11" height="372" width="88" y="264" x="419" stroke-width="1.5" stroke="#000" fill="yellow"/>
	<rect id="svg_12" height="284" width="966" y="322" x="552" stroke-width="1.5" stroke="#000" fill="blue"/>
	<rect id="svg_13" height="87" width="504" y="130" x="261" stroke-width="1.5" stroke="#000" fill="red"/>
	<rect id="svg_14" height="10" width="29" y="468" x="948" stroke-width="1.5" stroke="#000" fill="red"/>
	<rect id="svg_15" height="71" width="1720" y="127" x="812" stroke-width="1.5" stroke="#000" fill="blue"/>
	<rect id="svg_16" height="143" width="331" y="796" x="889" stroke-width="1.5" stroke="#000" fill="blue"/>
	<rect id="svg_17" height="431" width="1244" y="264" x="464" stroke-width="1.5" stroke="#000" fill="yellow"/>
	<rect id="svg_18" height="450" width="44" y="1476" x="152" stroke-width="1.5" stroke="#000" fill="red"/>
	<rect id="svg_19" height="71" width="1203" y="336" x="233" stroke-width="1.5" stroke="#000" fill="green"/>
	<rect id="svg_20" height="105" width="12" y="1109" x="904" stroke-width="1.5" stroke="#000" fill="red"/>
	<rect id="svg_21" height="428" width="852" y="315" x="199" stroke-width="1.5" stroke="#000" fill="blue"/>
	<rect id="svg_22" height="572" width="1611" y="295" x="83" stroke-width="1.5" stroke="#000" fill="red"/>
	<rect id="svg_23" height="1" width="389" y="1054" x="358" stroke-width="1.5" stroke="#000" fill="green"/>
	<rect id="svg_24" height="37" width="671" y="78" x="120" stroke-width="1.5" stroke="#000" fill="blue"/>
	<rect id="svg_25" height="402" width="1085" y="621" x="298" stroke-width="1.5" stroke="#000" fill="red"/>
	<rect id="svg_26" height="48" width="562" y="602" x="88" stroke-width="1.5" stroke="#000" fill="blue"/>
	<rect id="svg_27" height="888" width="735" y="1065" x="92" stroke-width="1.5" stroke="#000" fill="yellow"/>
	<rect id="svg_28" height="939" width="398" y="680" x="106" stroke-width="1.5" stroke="#000" fill="yellow"/>
	<rect id="svg_29" height="119" width="1668" y="188" x="121" stroke-width="1.5" stroke="#000" fill="yellow"/>
	<rect id="svg_30" height="205" width="416" y="790" x="156" stroke-width="1.5" stroke="#000" fill="yellow"/>
	<rect id="svg_31" height="383" width="423" y="1170" x="146" stroke-width="1.5" stroke="#000" fill="green"/>
	<rect id="svg_32" height="448" width="512" y="1221" x="33" stroke-width="1.5" stroke="#000" fill="green"/>
	<rect id="svg_33" height="142" width="91" y="1518" x="322" stroke-width="1.5" stroke="#000" fill="red"/>
	<rect id="svg_34" height="171" width="496" y="1305" x="770" stroke-width="1.5" stroke="#000" fill="green"/>
	<rect id="svg_35" height="212" width="483" y="410" x="127" stroke-width="1.5" stroke="#000" fill="yellow"/>
	<rect id="svg_36" height="43" width="526" y="1067" x="678" stroke-width="1.5" stroke="#000" fill="blue"/>
	<rect id="svg_37" height="97" width="494" y="926" x="704" stroke-width="1.5" stroke="#000" fill="blue"/>
	<rect id="svg_38" height="164" width="955" y="604" x="179" stroke-width="1.5" stroke="#000" fill="green"/>
	<rect id="svg_39" height="343" width="517" y="633" x="211" stroke-width="1.5" stroke="#000" fill="red"/>
	<rect id="svg_40" height="302" width="237" y="48" x="737" stroke-width="1.5" stroke="#000" fill="green"/>
	<rect id="svg_41" height="380" width="1037" y="3" x="468" stroke-width="1.5" stroke="#000" fill="green"/>
	<rect id="svg_42" height="622" width="1032" y="464" x="152" stroke-width="1.5" stroke="#000" fill="blue"/>
	<rect id="svg_43" height="904" width="964" y="316" x="130" stroke-width="1.5" stroke="#000" fill="green"/>
	<rect id="svg_44" height="825" width="190" y="805" x="59" stroke-width="1.5" stroke="#000" fill="yellow"/>
	<rect id="svg_45" height="297" width="558" y="921" x="112" stroke-width="1.5" stroke="#000" fill="blue"/>
	<rect id="svg_46" height="15" width="95" y="1697" x="919" stroke-width="1.5" stroke="#000" fill="yellow"/>
	<rect id="svg_47" height="95" width="1007" y="659" x="145" stroke-width="1.5" stroke="#000" fill="blue"/>
	<rect id="svg_48" height="183" width="737" y="834" x="65" stroke-width="1.5" stroke="#000" fill="red"/>
	<rect id="svg_49" height="446" width="807" y="725" x="92" stroke-width="1.5" stroke="#000" fill="yellow"/>
</svg>